rotated_Sprint_06300001_forces_filt50Hz.mot
version=1
nRows=38
nColumns=19
inDegrees=yes
endheader
time	R_ground_force_vx	R_ground_force_vy	R_ground_force_vz	R_ground_force_px	R_ground_force_py	R_ground_force_pz	R_ground_torque_x	R_ground_torque_y	R_ground_torque_z	L_ground_force_vx	L_ground_force_vy	L_ground_force_vz	L_ground_force_px	L_ground_force_py	L_ground_force_pz	L_ground_torque_x	L_ground_torque_y	L_ground_torque_z	
1.794500	  0.000000	  0.000000	  0.000000	  0.159521	  0.000000	 -0.230040	  0.000000	  0.000000	  0.000000	  0.000000	  0.000000	  0.000000	  1.136882	  0.000000	 -0.143846	  0.000000	  0.000000	  0.000000
1.795000	  0.000000	  0.000000	  0.000000	  0.158227	  0.000000	 -0.232119	  0.000000	  0.000000	  0.000000	  0.000000	  0.000000	  0.000000	  1.138961	  0.000000	 -0.143301	  0.000000	  0.000000	  0.000000
1.795500	  0.000000	  0.000000	  0.000000	  0.157242	  0.000000	 -0.234278	  0.000000	  0.000000	  0.000000	  0.000000	  0.000000	  0.000000	  1.140683	  0.000000	 -0.142929	  0.000000	  0.000000	  0.000000
1.796000	  0.000000	  0.000000	  0.000000	  0.156256	  0.000000	 -0.236436	  0.000000	  0.000000	  0.000000	  0.000000	  0.000000	  0.000000	  1.142406	  0.000000	 -0.142557	  0.000000	  0.000000	  0.000000
1.796500	  0.000000	  0.000000	  0.000000	  0.155271	  0.000000	 -0.238595	  0.000000	  0.000000	  0.000000	  0.000000	  0.000000	  0.000000	  1.144128	  0.000000	 -0.142185	  0.000000	  0.000000	  0.000000
1.797000	  0.000000	  0.000000	  0.000000	  0.154285	  0.000000	 -0.240754	  0.000000	  0.000000	  0.000000	  0.000000	  0.000000	  0.000000	  1.145850	  0.000000	 -0.141813	  0.000000	  0.000000	  0.000000
1.797500	  0.000000	  0.000000	  0.000000	  0.153300	  0.000000	 -0.242913	  0.000000	  0.000000	  0.000000	  0.000000	  0.000000	  0.000000	  1.147573	  0.000000	 -0.141441	  0.000000	  0.000000	  0.000000
1.798000	  0.000000	  0.000000	  0.000000	  0.152315	  0.000000	 -0.245071	  0.000000	  0.000000	  0.000000	  0.000000	  0.000000	  0.000000	  1.149295	  0.000000	 -0.141069	  0.000000	  0.000000	  0.000000
1.798500	  0.000000	  0.000000	  0.000000	  0.151329	  0.000000	 -0.247230	  0.000000	  0.000000	  0.000000	  0.000000	  0.000000	  0.000000	  1.151017	  0.000000	 -0.140697	  0.000000	  0.000000	  0.000000
1.799000	  0.000000	  0.000000	  0.000000	  0.150344	  0.000000	 -0.249389	  0.000000	  0.000000	  0.000000	  0.000000	  0.000000	  0.000000	  1.152739	  0.000000	 -0.140325	  0.000000	  0.000000	  0.000000
1.799500	  0.000000	  0.000000	  0.000000	  0.149358	  0.000000	 -0.251547	  0.000000	  0.000000	  0.000000	  0.000000	  0.000000	  0.000000	  1.154462	  0.000000	 -0.139953	  0.000000	  0.000000	  0.000000
1.800000	  0.000000	  0.000000	  0.000000	  0.148373	  0.000000	 -0.253706	  0.000000	  0.000000	  0.000000	  0.000000	  0.000000	  0.000000	  1.156184	  0.000000	 -0.139581	  0.000000	  0.000000	  0.000000
1.800500	  0.000000	  0.000000	  0.000000	  0.147500	  0.000000	 -0.255851	  0.000000	  0.000000	  0.000000	  0.000000	  0.000000	  0.000000	  1.157571	  0.000000	 -0.139293	  0.000000	  0.000000	  0.000000
1.801000	  0.000000	  0.000000	  0.000000	  0.146626	  0.000000	 -0.257996	  0.000000	  0.000000	  0.000000	  0.000000	  0.000000	  0.000000	  1.158959	  0.000000	 -0.139006	  0.000000	  0.000000	  0.000000
1.801500	  0.000000	  0.000000	  0.000000	  0.145752	  0.000000	 -0.260140	  0.000000	  0.000000	  0.000000	  0.000000	  0.000000	  0.000000	  1.160346	  0.000000	 -0.138718	  0.000000	  0.000000	  0.000000
1.802000	  0.000000	  0.000000	  0.000000	  0.144879	  0.000000	 -0.262285	  0.000000	  0.000000	  0.000000	  0.000000	  0.000000	  0.000000	  1.161733	  0.000000	 -0.138431	  0.000000	  0.000000	  0.000000
1.802500	  0.000000	  0.000000	  0.000000	  0.144005	  0.000000	 -0.264430	  0.000000	  0.000000	  0.000000	  0.000000	  0.000000	  0.000000	  1.163121	  0.000000	 -0.138143	  0.000000	  0.000000	  0.000000
1.803000	  0.000000	  0.000000	  0.000000	  0.143132	  0.000000	 -0.266575	  0.000000	  0.000000	  0.000000	  0.000000	  0.000000	  0.000000	  1.164508	  0.000000	 -0.137855	  0.000000	  0.000000	  0.000000
1.803500	  0.000000	  0.000000	  0.000000	  0.142258	  0.000000	 -0.268720	  0.000000	  0.000000	  0.000000	  0.000000	  0.000000	  0.000000	  1.165895	  0.000000	 -0.137568	  0.000000	  0.000000	  0.000000
1.804000	  0.000000	  0.000000	  0.000000	  0.141385	  0.000000	 -0.270864	  0.000000	  0.000000	  0.000000	  0.000000	  0.000000	  0.000000	  1.167282	  0.000000	 -0.137280	  0.000000	  0.000000	  0.000000
1.804500	  0.000000	  0.000000	  0.000000	  0.140511	  0.000000	 -0.273009	  0.000000	  0.000000	  0.000000	  0.000000	  0.000000	  0.000000	  1.168670	  0.000000	 -0.136993	  0.000000	  0.000000	  0.000000
1.805000	  0.000000	  0.000000	  0.000000	  0.139638	  0.000000	 -0.275154	  0.000000	  0.000000	  0.000000	  0.000000	  0.000000	  0.000000	  1.170057	  0.000000	 -0.136705	  0.000000	  0.000000	  0.000000
1.805500	  0.000000	  0.000000	  0.000000	  0.138928	  0.000000	 -0.277385	  0.000000	  0.000000	  0.000000	  0.000000	  0.000000	  0.000000	  1.171087	  0.000000	 -0.136468	  0.000000	  0.000000	  0.000000
1.806000	  0.000000	  0.000000	  0.000000	  0.138219	  0.000000	 -0.279615	  0.000000	  0.000000	  0.000000	  0.000000	  0.000000	  0.000000	  1.172117	  0.000000	 -0.136231	  0.000000	  0.000000	  0.000000
1.806500	  0.000000	  0.000000	  0.000000	  0.137509	  0.000000	 -0.281846	  0.000000	  0.000000	  0.000000	  0.000000	  0.000000	  0.000000	  1.173147	  0.000000	 -0.135995	  0.000000	  0.000000	  0.000000
1.807000	  0.000000	  0.000000	  0.000000	  0.136800	  0.000000	 -0.284076	  0.000000	  0.000000	  0.000000	  0.000000	  0.000000	  0.000000	  1.174177	  0.000000	 -0.135758	  0.000000	  0.000000	  0.000000
1.807500	  0.000000	  0.000000	  0.000000	  0.136090	  0.000000	 -0.286307	  0.000000	  0.000000	  0.000000	  0.000000	  0.000000	  0.000000	  1.175207	  0.000000	 -0.135521	  0.000000	  0.000000	  0.000000
1.808000	  0.000000	  0.000000	  0.000000	  0.135380	  0.000000	 -0.288538	  0.000000	  0.000000	  0.000000	  0.000000	  0.000000	  0.000000	  1.176237	  0.000000	 -0.135284	  0.000000	  0.000000	  0.000000
1.808500	  0.000000	  0.000000	  0.000000	  0.134671	  0.000000	 -0.290768	  0.000000	  0.000000	  0.000000	  0.000000	  0.000000	  0.000000	  1.177267	  0.000000	 -0.135047	  0.000000	  0.000000	  0.000000
1.809000	  0.000000	  0.000000	  0.000000	  0.133961	  0.000000	 -0.292999	  0.000000	  0.000000	  0.000000	  0.000000	  0.000000	  0.000000	  1.178297	  0.000000	 -0.134811	  0.000000	  0.000000	  0.000000
1.809500	  0.000000	  0.000000	  0.000000	  0.133252	  0.000000	 -0.295229	  0.000000	  0.000000	  0.000000	  0.000000	  0.000000	  0.000000	  1.179327	  0.000000	 -0.134574	  0.000000	  0.000000	  0.000000
1.810000	  0.000000	  0.000000	  0.000000	  0.132542	  0.000000	 -0.297460	  0.000000	  0.000000	  0.000000	  0.000000	  0.000000	  0.000000	  1.180357	  0.000000	 -0.134337	  0.000000	  0.000000	  0.000000
1.810500	  0.000000	  0.000000	  0.000000	  0.131899	  0.000000	 -0.299679	  0.000000	  0.000000	  0.000000	  0.000000	  0.000000	  0.000000	  1.181039	  0.000000	 -0.134151	  0.000000	  0.000000	  0.000000
1.811000	  0.000000	  0.000000	  0.000000	  0.131257	  0.000000	 -0.301899	  0.000000	  0.000000	  0.000000	  0.000000	  0.000000	  0.000000	  1.181721	  0.000000	 -0.133965	  0.000000	  0.000000	  0.000000
1.811500	  0.000000	  0.000000	  0.000000	  0.130614	  0.000000	 -0.304118	  0.000000	  0.000000	  0.000000	  0.000000	  0.000000	  0.000000	  1.182403	  0.000000	 -0.133779	  0.000000	  0.000000	  0.000000
1.812000	  0.000000	  0.000000	  0.000000	  0.129972	  0.000000	 -0.306337	  0.000000	  0.000000	  0.000000	  0.000000	  0.000000	  0.000000	  1.183085	  0.000000	 -0.133593	  0.000000	  0.000000	  0.000000
1.812500	  0.000000	  0.000000	  0.000000	  0.129329	  0.000000	 -0.308557	  0.000000	  0.000000	  0.000000	  0.000000	  0.000000	  0.000000	  1.183766	  0.000000	 -0.133408	  0.000000	  0.000000	  0.000000
1.813000	  0.000000	  0.000000	  0.000000	  0.128686	  0.000000	 -0.310776	  0.000000	  0.000000	  0.000000	  0.000000	  0.000000	  0.000000	  1.184448	  0.000000	 -0.133222	  0.000000	  0.000000	  0.000000
